<?xml version="1.0" standalone="no"?>
<!DOCTYPE svg PUBLIC "-//W3C//DTD SVG 20010904//EN"
 "http://www.w3.org/TR/2001/REC-SVG-20010904/DTD/svg10.dtd">
<svg version="1.0" xmlns="http://www.w3.org/2000/svg"
 width="200.000000pt" height="200.000000pt" viewBox="0 0 200.000000 200.000000"
 preserveAspectRatio="xMidYMid meet">
<metadata>
Created by potrace 1.11, written by Peter Selinger 2001-2013
</metadata>
<g transform="translate(0.000000,200.000000) scale(0.100000,-0.100000)"
fill="#000000" stroke="none">
<path d="M659 1886 c-2 -3 -34 -6 -71 -8 -43 -1 -69 -7 -72 -15 -3 -7 -10 -13
-16 -13 -15 0 -41 -26 -33 -34 4 -3 2 -6 -4 -6 -12 0 -79 -110 -75 -122 1 -5
-3 -8 -8 -8 -6 0 -10 -6 -10 -14 0 -8 -7 -17 -16 -20 -9 -4 -14 -9 -11 -13 4
-3 -2 -18 -13 -33 -11 -15 -17 -30 -13 -34 3 -3 1 -6 -5 -6 -6 0 -23 -24 -36
-52 -14 -29 -26 -48 -26 -43 0 6 -10 -9 -23 -32 -48 -91 -70 -128 -88 -151
-10 -14 -19 -30 -19 -38 0 -7 -3 -14 -7 -16 -5 -1 -19 -23 -32 -48 -14 -25
-27 -47 -30 -50 -3 -3 -17 -27 -30 -53 -35 -72 -27 -132 30 -225 24 -39 49
-80 54 -90 6 -9 30 -48 53 -87 24 -38 48 -79 55 -90 7 -10 23 -37 37 -60 13
-22 29 -48 35 -57 5 -9 17 -29 26 -45 9 -15 39 -65 67 -111 29 -46 52 -88 52
-93 0 -5 5 -9 10 -9 6 0 10 -5 10 -11 0 -20 64 -68 98 -75 39 -8 632 -11 632
-4 0 3 28 4 62 2 35 -2 86 -3 113 -2 28 0 67 0 88 0 20 -1 37 4 37 10 0 6 4 9
9 6 17 -11 60 35 105 111 25 43 45 82 45 87 -1 5 6 13 15 18 9 5 16 13 16 19
0 5 12 28 27 52 15 23 26 45 25 49 -1 5 2 8 7 8 5 0 11 8 15 18 5 16 12 28 48
83 10 14 15 29 11 33 -3 3 -2 6 4 6 6 0 23 24 38 53 15 28 34 60 43 70 8 9 11
17 6 17 -5 0 -4 4 2 8 6 4 25 34 44 67 19 33 38 63 44 67 6 4 7 8 2 8 -6 0 -5
5 2 12 24 24 7 168 -20 168 -5 0 -7 4 -4 8 3 5 -3 20 -12 33 -25 36 -52 82
-58 102 -4 9 -10 17 -15 17 -5 0 -9 7 -9 15 0 8 -5 15 -11 15 -5 0 -8 4 -4 9
3 5 -1 15 -8 23 -7 7 -21 30 -30 51 -10 20 -23 37 -29 37 -6 0 -9 3 -6 6 4 3
-16 44 -43 91 -27 46 -49 88 -49 92 0 4 -9 17 -20 29 -12 12 -18 22 -14 22 4
0 0 8 -9 18 -8 9 -17 24 -19 32 -3 14 -7 21 -36 55 -7 8 -10 15 -7 15 4 0 -3
13 -14 29 -12 16 -21 35 -21 42 0 7 -3 10 -6 7 -3 -4 -22 5 -41 18 -23 15 -51
24 -77 25 -23 0 -51 2 -64 3 -13 2 -25 -1 -27 -5 -3 -4 -17 -4 -31 0 -14 3
-53 4 -85 1 -33 -3 -62 -4 -64 -2 -5 6 -295 5 -301 -1 -3 -3 -17 -2 -31 2 -13
4 -51 4 -84 1 -33 -3 -63 -2 -67 2 -5 5 -10 6 -13 4z"/>
</g>
</svg>
